HIERARCHY
ROOT root
{
	OFFSET 0.000000 0.000000 0.000000
	CHANNELS 6 Xposition Yposition Zposition Zrotation Yrotation Xrotation
	JOINT lhip
	{
		OFFSET 0.058581 -0.082280 -0.017664
		CHANNELS 3 Zrotation Yrotation Xrotation
		JOINT lknee
		{
			OFFSET 0.043451 -0.386469 0.008037
			CHANNELS 3 Zrotation Yrotation Xrotation
			JOINT lankle
			{
				OFFSET -0.014790 -0.426874 -0.037428
				CHANNELS 3 Zrotation Yrotation Xrotation
				JOINT ltoe
				{
					OFFSET 0.041054 -0.060286 0.122042
					CHANNELS 3 Zrotation Yrotation Xrotation
					End Site
					{
						OFFSET 0.000000 0.000000 0.000000
					}
				}
			}
		}
	}
	JOINT rhip
	{
		OFFSET -0.060310 -0.090513 -0.013543
		CHANNELS 3 Zrotation Yrotation Xrotation
		JOINT rknee
		{
			OFFSET -0.043257 -0.383688 -0.004843
			CHANNELS 3 Zrotation Yrotation Xrotation
			JOINT rankle
			{
				OFFSET 0.019056 -0.420046 -0.034562
				CHANNELS 3 Zrotation Yrotation Xrotation
				JOINT rtoe
				{
					OFFSET -0.034840 -0.062106 0.130323
					CHANNELS 3 Zrotation Yrotation Xrotation
					End Site
					{
						OFFSET 0.000000 0.000000 0.000000
					}
				}
			}
		}
	}
	JOINT lowerback
	{
		OFFSET 0.004439 0.124404 -0.038385
		CHANNELS 3 Zrotation Yrotation Xrotation
		JOINT upperback
		{
			OFFSET 0.004488 0.137956 0.026820
			CHANNELS 3 Zrotation Yrotation Xrotation
			JOINT chest
			{
				OFFSET -0.002265 0.056032 0.002855
				CHANNELS 3 Zrotation Yrotation Xrotation
				JOINT lowerneck
				{
					OFFSET -0.013390 0.211636 -0.033468
					CHANNELS 3 Zrotation Yrotation Xrotation
					JOINT upperneck
					{
						OFFSET 0.010113 0.088937 0.050410
						CHANNELS 3 Zrotation Yrotation Xrotation
						End Site
						{
							OFFSET 0.000000 0.000000 0.000000
						}
					}
				}
				JOINT lclavicle
				{
					OFFSET 0.071702 0.114000 -0.018898
					CHANNELS 3 Zrotation Yrotation Xrotation
					JOINT lshoulder
					{
						OFFSET 0.122921 0.045205 -0.019046
						CHANNELS 3 Zrotation Yrotation Xrotation
						JOINT lelbow
						{
							OFFSET 0.255332 -0.015649 -0.022946
							CHANNELS 3 Zrotation Yrotation Xrotation
							JOINT lwrist
							{
								OFFSET 0.265709 0.012698 -0.007375
								CHANNELS 3 Zrotation Yrotation Xrotation
								End Site
								{
									OFFSET 0.000000 0.000000 0.000000
								}
							}
						}
					}
				}
				JOINT rclavicle
				{
					OFFSET -0.082954 0.112472 -0.023707
					CHANNELS 3 Zrotation Yrotation Xrotation
					JOINT rshoulder
					{
						OFFSET -0.113228 0.046853 -0.008472
						CHANNELS 3 Zrotation Yrotation Xrotation
						JOINT relbow
						{
							OFFSET -0.260127 -0.014369 -0.031269
							CHANNELS 3 Zrotation Yrotation Xrotation
							JOINT rwrist
							{
								OFFSET -0.269108 0.006794 -0.006027
								CHANNELS 3 Zrotation Yrotation Xrotation
								End Site
								{
									OFFSET 0.000000 0.000000 0.000000
								}
							}
						}
					}
				}
			}
		}
	}
}
MOTION
Frames: 8
Frame Time: 0.033333
0.058765 -0.249928 0.983357 -178.705484 2.310342 88.387308 9.316350 -1.035976 -23.319229 -5.403477 10.954716 62.643264 1.630294 9.297757 -14.908397 0.000000 -0.000000 0.000000 7.615893 -1.582002 -5.969582 5.567341 -4.600365 13.191610 -2.491965 -9.038400 -21.809671 0.000000 -0.000000 0.000000 -2.162293 4.147847 14.306874 1.648583 -1.037289 -6.570368 0.633372 -1.095816 2.595944 5.323254 2.072350 -8.388529 -0.764262 -4.328687 11.471859 -26.786275 2.687438 -1.882159 -48.307763 -4.550042 4.233951 16.513327 -25.798226 -7.386949 10.926644 -3.137911 -4.458729 25.342613 3.132880 -2.536959 47.527910 11.143005 13.452273 -2.703022 29.886896 8.747526 -1.942212 4.266747 -5.595074 
0.059408 -0.224101 0.982688 -179.008841 1.808733 87.810487 8.767364 -2.052577 -27.626582 -5.154063 12.208320 57.261398 2.591629 9.560985 -17.679124 0.000000 -0.000000 0.000000 6.916666 -3.128739 -2.279321 5.819638 -3.302606 11.460618 -1.943778 -8.265394 -22.639386 0.000000 -0.000000 0.000000 -2.203204 5.593951 14.846811 1.374054 -1.624399 -6.528125 0.660459 -0.844236 3.180165 5.166290 2.103155 -8.083076 -1.106143 -4.643399 11.104652 -26.953488 2.388034 -2.177825 -48.399545 -4.436881 4.461686 16.035214 -26.346658 -6.498654 10.425425 -3.363356 -4.512019 25.090294 4.203171 -2.562569 47.408006 12.369069 13.567121 -2.804124 29.926569 8.742835 -2.098710 4.602326 -4.956949 
0.059735 -0.199899 0.980918 -179.679140 1.624957 87.930367 8.640806 -2.703723 -31.605086 -5.256370 13.015476 48.915663 3.517125 10.484622 -18.698100 0.000000 -0.000000 0.000000 6.435852 -4.637220 -0.094836 5.949338 -1.781625 10.879366 -1.767590 -7.378790 -23.730062 0.000000 -0.000000 0.000000 -1.902742 6.723973 14.702303 1.065907 -1.994393 -6.216859 0.548764 -0.518662 3.454187 4.816408 2.586644 -8.341058 -1.306650 -4.908251 11.062257 -27.148446 2.144991 -2.608089 -48.671956 -4.081505 5.069674 15.906297 -26.637870 -5.825330 9.869735 -3.327997 -4.847560 24.895397 5.123172 -2.323251 47.171389 13.718516 13.589299 -2.535814 30.078892 9.030740 -1.561304 4.557798 -5.063968 
0.058099 -0.162372 0.976786 179.838822 1.785683 87.996997 8.093546 -3.654030 -34.494835 -4.628453 12.039405 31.515984 3.922440 11.823128 -16.018540 0.000000 -0.000000 0.000000 6.413428 -3.949764 3.602063 6.160411 -1.102766 9.570436 -1.714158 -7.966196 -24.987632 0.000000 -0.000000 0.000000 -1.040728 7.027123 15.849718 0.563641 -2.096977 -7.188991 0.419836 0.021841 3.445360 4.413021 3.334671 -8.836753 -1.762180 -5.643074 11.851782 -27.348292 2.376112 -3.155974 -48.974326 -3.371176 5.871436 15.637746 -26.639495 -5.042001 9.494775 -3.711752 -4.263396 24.710868 5.874735 -2.365005 47.202501 15.062466 14.330670 -2.022461 30.429294 9.444934 -2.913211 5.212789 -4.558514 
0.057644 -0.149599 0.974622 179.589597 1.985576 88.218301 7.957321 -3.512566 -35.055585 -4.570346 10.890188 25.144995 3.687534 11.358832 -13.946942 0.000000 -0.000000 0.000000 6.358798 -4.503819 4.409451 6.353112 -0.635044 9.640278 -1.671096 -7.586197 -25.458936 0.000000 -0.000000 0.000000 -0.673430 7.179234 15.902828 0.390163 -2.125610 -7.345568 0.395550 0.160451 3.328943 4.111094 3.590596 -9.019404 -1.797151 -5.855523 12.107745 -27.285259 2.462470 -3.271750 -49.230023 -3.135619 6.064340 15.614352 -26.518923 -4.811140 9.780765 -3.621963 -4.358703 24.681754 6.105166 -2.258538 47.278137 15.313919 14.319253 -1.763450 30.706381 9.580638 -3.220633 5.469915 -4.463758 
0.056505 -0.123421 0.969611 179.003824 2.438546 88.721118 7.473032 -2.673586 -35.771963 -4.323194 7.322468 14.344587 2.309183 10.036291 -12.095942 0.000000 -0.000000 0.000000 6.196226 -5.937965 5.981197 6.458924 0.406736 9.821784 -1.426316 -6.299889 -26.470361 0.000000 -0.000000 0.000000 -0.026587 7.403183 16.008621 0.124245 -2.229527 -7.739910 0.354137 0.483380 3.100855 3.813526 4.442840 -9.539088 -1.831974 -6.253797 12.609653 -27.133100 2.769604 -3.747396 -49.666140 -2.546486 6.317721 15.390627 -26.189579 -4.224007 10.057855 -3.330170 -4.644616 24.581170 6.349773 -2.342891 47.527481 15.670759 14.384856 -0.817232 31.234026 10.746743 -3.087275 5.625921 -4.829878 
0.055338 -0.095796 0.964053 178.163751 2.725652 89.265752 6.742578 -1.310711 -36.662062 -3.718307 4.875312 8.127616 1.496117 8.515086 -10.380037 0.000000 -0.000000 0.000000 5.932381 -6.660627 7.158606 6.418208 1.428994 10.787228 -1.229560 -5.755147 -27.321898 0.000000 -0.000000 0.000000 0.219131 7.641885 15.822071 -0.062239 -2.092291 -8.188995 0.331606 0.721938 3.108839 3.657475 4.805002 -10.087439 -1.886568 -6.160030 13.127492 -27.195997 2.997433 -4.032297 -49.717560 -2.194163 6.365453 15.057477 -25.455832 -4.001027 11.106122 -3.401408 -4.750829 24.769554 6.567582 -2.376348 47.569608 15.707043 14.731189 0.142456 31.733576 11.481690 -3.556459 6.103299 -5.121159 
0.053605 -0.065898 0.959086 177.072937 2.674504 89.732925 6.525442 -1.801417 -36.995953 -3.640040 4.347487 6.793284 1.638677 8.620290 -10.595144 0.000000 -0.000000 0.000000 5.487700 -6.112766 8.444463 6.360348 2.569802 12.014701 -0.451804 -5.528697 -28.103770 0.000000 -0.000000 0.000000 -0.152995 7.983416 15.250107 -0.039717 -1.928642 -8.220613 0.320751 0.969978 3.033504 3.752082 5.347341 -10.597768 -2.150406 -5.995784 13.641601 -27.304718 3.395768 -4.361201 -49.708183 -1.900156 6.490375 14.918238 -24.604690 -4.264991 11.577823 -3.436885 -4.665413 25.225320 6.410070 -2.475963 47.759142 15.619259 15.388800 0.618907 32.054928 11.556785 -4.042497 6.464226 -4.703863 
